<svg version="1.1" id="Layer_1" xmlns="http://www.w3.org/2000/svg" xmlns:xlink="http://www.w3.org/1999/xlink" x="0px" y="0px"
	 width="100%" viewBox="0 0 576 464" enable-background="new 0 0 576 464" xml:space="preserve">
<path fill="#000000" opacity="1.000000" stroke="none" 
	d="
M368.486877,12.549870 
	C361.072327,10.888967 354.046112,9.336669 346.853699,7.747646 
	C347.904175,5.741590 349.374023,5.993987 350.631012,5.988472 
	C372.106812,5.894231 393.652039,4.876838 414.916229,8.858615 
	C456.989655,16.736980 496.282104,49.477142 502.699249,97.775780 
	C507.208160,131.711807 494.377258,159.766174 468.222137,181.713394 
	C455.388458,192.482315 440.710114,199.752228 424.671661,204.398605 
	C422.775421,204.947952 420.925934,205.658707 417.945923,206.671478 
	C435.023499,208.921097 450.593231,212.613449 465.561432,218.745193 
	C486.476105,227.312927 504.826813,239.440094 518.307556,257.793915 
	C537.706848,284.205933 542.320984,322.599823 525.325867,353.193115 
	C510.904266,379.153870 488.149536,393.950653 460.968170,402.964935 
	C441.868439,409.299042 421.986084,411.907013 401.930054,412.000244 
	C348.770752,412.247345 295.609436,412.092743 242.449036,412.009308 
	C238.977234,412.003845 235.266632,412.795288 231.924942,410.710724 
	C232.813721,408.781525 234.472885,408.736511 235.861099,408.488129 
	C250.547043,405.860718 260.827637,386.094757 256.787628,371.964539 
	C251.427658,353.217712 244.111740,335.138977 237.636459,316.774506 
	C227.559830,288.196381 217.291901,259.685577 207.073227,231.157639 
	C194.385040,195.735550 181.790070,160.279099 168.852127,124.948326 
	C166.255356,117.857132 166.147797,111.585541 168.883698,104.419052 
	C180.402557,74.246376 191.468704,43.899361 201.920639,13.334285 
	C202.556808,11.473896 203.446808,9.700307 204.240601,7.834873 
	C207.005081,8.455619 207.009964,10.779257 207.611374,12.492095 
	C223.603989,58.039516 239.504501,103.619270 255.501007,149.165314 
	C268.520844,186.235977 281.671783,223.260559 294.714172,260.323303 
	C306.924957,295.023041 319.041321,329.756012 331.255432,364.454559 
	C337.104034,381.069519 346.988861,394.435577 362.731934,403.017181 
	C368.694885,406.267639 374.956696,408.240509 381.815277,408.108612 
	C386.146820,408.025269 390.480682,408.067841 394.812958,408.013519 
	C420.072296,407.696838 438.842865,395.354736 453.283447,375.709930 
	C467.524170,356.337036 473.510803,334.106506 472.536469,310.349304 
	C471.244476,278.848236 460.927856,251.040833 436.056000,230.068390 
	C421.742798,217.999161 404.962708,211.954971 386.477814,211.506226 
	C364.672028,210.976822 342.842712,211.423828 321.023621,211.419785 
	C319.018188,211.419418 316.666840,212.162918 315.411224,209.579285 
	C317.105835,207.159500 319.462708,208.030853 321.467102,207.990952 
	C336.608887,207.689545 351.839752,208.709000 366.782562,205.340576 
	C391.830566,199.694214 409.872681,184.403122 423.458008,163.335556 
	C451.040680,120.561485 440.728851,57.102715 397.116364,26.281384 
	C388.455902,20.160967 378.905273,15.921647 368.486877,12.549870 
z"/>
<path fill="#000000" opacity="1.000000" stroke="none" 
	d="
M67.147858,371.151855 
	C75.647850,360.639618 81.928024,349.122192 88.056908,337.574188 
	C90.693031,338.619629 89.567604,340.231384 89.483337,341.571564 
	C88.364952,359.357758 90.771156,376.473877 99.421181,392.323975 
	C103.793602,400.335876 109.756866,406.610962 119.043152,408.880035 
	C119.516556,408.995728 119.978569,409.241364 120.385201,409.516235 
	C120.633606,409.684174 120.765846,410.023926 120.944778,410.290344 
	C117.188202,412.515594 16.236528,412.744995 10.134295,410.122589 
	C33.653221,403.119598 51.951118,389.645782 67.147858,371.151855 
z"/>
</svg>